# xmcd
#
# Track frame offsets: 
#        150
#        17479
#        47964
#        66369
#        89229
#        121746
#        147128
#        179656
#        214091
#
# Disc length: 3359 seconds
#
# Revision: 0
# Processed by: cddbd v1.5.2PL0 Copyright (c) Steve Scherf et al.
# Submitted via: ExactAudioCopy v0.99pb4
#
DISCID=860d1d09
DTITLE=John Mayall - Live From Austin Texas
DYEAR=1993
DGENRE=Blues
TTITLE0=I Want To Go
TTITLE1=Ain't That Lovin' You Baby
TTITLE2=Maydell
TTITLE3=Wake Up Call
TTITLE4=I'm A Sucker For Love
TTITLE5=Nature's Disappearing
TTITLE6=I Could Cry
TTITLE7=The Bear
TTITLE8=Mail Order Mytics
EXTD=
EXTT0=
EXTT1=
EXTT2=
EXTT3=
EXTT4=
EXTT5=
EXTT6=
EXTT7=
EXTT8=
PLAYORDER=
